# xmcd
# Track frame offsets:
# 150
# 18570
# 39572
# 62085
# 78610
# 92982
# 109870
# 120247
# 136435
# 148625
# 164262
# 189642
#
# Disc length: 2874 seconds
# Revision: 1
# Processed by: cddbd v1.4PL0 Copyright (c) Steve Scherf et al.
# Submitted via: VisiTrax 2.9.7.197 - For more info visit www.synapsa.com
#
DISCID=a60b380c
DTITLE=Montgomery, Little Brother - Chicago: The Living Legends - Little Brot
DTITLE=her Montgomery - Piano,Vocal And Band Blues
DYEAR=1993
DGENRE=Blues
TTITLE0=Home Again Blues
TTITLE1=Up The Country Blues
TTITLE2=Saturday Night Function
TTITLE3=Michigan Water Blues
TTITLE4=Sweet Daddy (Your Mama's Done Gone Mad)
TTITLE5=Prescription For The Blues
TTITLE6=44 Vicksburg
TTITLE7=Trouble In Mind
TTITLE8=Riverside Boogie
TTITLE9=Oh, Daddy
TTITLE10=Somethin' Keep Worryin' Me Blues
TTITLE11=Cooter Crawl
EXTD=Riverside, OBCCD-525-2
EXTT0=
EXTT1=
EXTT2=
EXTT3=
EXTT4=
EXTT5=
EXTT6=
EXTT7=
EXTT8=
EXTT9=
EXTT10=
EXTT11=
PLAYORDER=
